<?xml version="1.0" encoding="UTF-8" standalone="no"?>
<!-- Created with Inkscape (http://www.inkscape.org/) -->

<svg
   xmlns:dc="http://purl.org/dc/elements/1.1/"
   xmlns:cc="http://creativecommons.org/ns#"
   xmlns:rdf="http://www.w3.org/1999/02/22-rdf-syntax-ns#"
   xmlns:svg="http://www.w3.org/2000/svg"
   xmlns="http://www.w3.org/2000/svg"
   xmlns:sodipodi="http://sodipodi.sourceforge.net/DTD/sodipodi-0.dtd"
   xmlns:inkscape="http://www.inkscape.org/namespaces/inkscape"
   width="58.308678"
   height="56.926418"
   viewBox="0 0 15.427505 15.061782"
   version="1.1"
   id="svg8"
   inkscape:version="0.92.5 (2060ec1f9f, 2020-04-08)"
   sodipodi:docname="asteroid_no1.svg">
  <defs
     id="defs2" />
  <sodipodi:namedview
     id="base"
     pagecolor="#ffffff"
     bordercolor="#666666"
     borderopacity="1.0"
     inkscape:pageopacity="0.0"
     inkscape:pageshadow="2"
     inkscape:zoom="15.839192"
     inkscape:cx="33.845099"
     inkscape:cy="28.251111"
     inkscape:document-units="mm"
     inkscape:current-layer="layer1"
     showgrid="false"
     fit-margin-top="0"
     fit-margin-left="0"
     fit-margin-right="0"
     fit-margin-bottom="0"
     units="px"
     inkscape:window-width="1971"
     inkscape:window-height="1569"
     inkscape:window-x="996"
     inkscape:window-y="414"
     inkscape:window-maximized="0" />
  <metadata
     id="metadata5">
    <rdf:RDF>
      <cc:Work
         rdf:about="">
        <dc:format>image/svg+xml</dc:format>
        <dc:type
           rdf:resource="http://purl.org/dc/dcmitype/StillImage" />
        <dc:title></dc:title>
      </cc:Work>
    </rdf:RDF>
  </metadata>
  <g
     inkscape:label="Layer 1"
     inkscape:groupmode="layer"
     id="layer1"
     transform="translate(-23.588447,-20.853426)">
    <path
       style="fill:#e6e6e6;stroke:#000000;stroke-width:0.26458332px;stroke-linecap:butt;stroke-linejoin:miter;stroke-opacity:1"
       d="m 24.789248,24.819394 4.395155,-2.33448 1.219417,-1.03567 0.902035,0.116931 1.434663,1.95028 1.705753,-0.463594 1.353053,0.7684 0.317382,1.319644 2.3052,1.403165 -0.100226,1.186008 -0.870537,1.833349 0.285884,1.925129 -1.65373,1.186008 -1.202713,2.255087 -1.471893,-0.154466 -2.971462,0.705709 -2.739513,-0.61806 -0.317383,-1.302939 -2.156772,-1.023093 -1.102486,-3.708366 z"
       id="path2095"
       inkscape:connector-curvature="0" />
    <path
       style="fill:none;stroke:#000000;stroke-width:1.05833328;stroke-linecap:round;stroke-linejoin:round;stroke-miterlimit:4;stroke-dasharray:none;stroke-opacity:1"
       d="m 24.121075,28.828436 c 1.169304,-4.476764 0.668173,-4.009042 0.668173,-4.009042 l 2.472244,-1.26953 c 0,0 1.904296,-0.902035 2.3052,-1.5368 0.400902,-0.634765 1.937703,-1.469982 2.973372,1.336348 1.035669,2.80633 0.968854,3.608139 0.968854,3.608139"
       id="path817"
       inkscape:connector-curvature="0" />
    <path
       style="fill:none;stroke:#000000;stroke-width:1.05833328;stroke-linecap:round;stroke-linejoin:round;stroke-miterlimit:4;stroke-dasharray:none;stroke-opacity:1"
       d="m 32.740518,23.516455 c 0,0 1.469982,-1.002261 2.605875,-0.167043 1.135896,0.835217 0.33409,1.369756 0.701583,2.138156 0.367496,0.7684 0.367496,0.7684 0.367496,0.7684"
       id="path819"
       inkscape:connector-curvature="0" />
    <path
       style="fill:none;stroke:#000000;stroke-width:1.05833328;stroke-linecap:round;stroke-linejoin:round;stroke-miterlimit:4;stroke-dasharray:none;stroke-opacity:1"
       d="m 36.014569,24.719168 c 1.937705,1.637026 3.040192,1.570208 2.171565,3.641546 -0.868627,2.071339 -3.541321,2.372019 -3.541321,2.372019"
       id="path821"
       inkscape:connector-curvature="0" />
    <path
       style="fill:none;stroke:#000000;stroke-width:1.05833328;stroke-linecap:round;stroke-linejoin:round;stroke-miterlimit:4;stroke-dasharray:none;stroke-opacity:1"
       d="m 37.451143,29.563427 c -0.267271,2.33861 1.403165,1.603619 -0.434313,2.438834 -1.837479,0.835218 -1.436574,3.240643 -2.539061,2.873148 C 33.375282,34.507913 32.43984,34.37428 32.43984,34.37428"
       id="path823"
       inkscape:connector-curvature="0" />
    <path
       style="fill:none;stroke:#000000;stroke-width:1.05833328;stroke-linecap:round;stroke-linejoin:round;stroke-miterlimit:4;stroke-dasharray:none;stroke-opacity:1"
       d="m 33.408691,34.775185 c -1.870887,0.734991 -2.939965,0.601355 -3.073601,0.601355 -0.133633,0 -2.405425,-0.06682 -2.772921,-0.902033 -0.367495,-0.835218 0.300678,-1.069078 0.300678,-1.069078"
       id="path825"
       inkscape:connector-curvature="0" />
    <path
       style="fill:none;stroke:#000000;stroke-width:1.05833328;stroke-linecap:round;stroke-linejoin:round;stroke-miterlimit:4;stroke-dasharray:none;stroke-opacity:1"
       d="m 24.121075,28.828436 c 1.469982,2.873147 1.102486,3.708366 1.102486,3.708366 0,0 1.169302,1.30294 2.639286,0.868627 1.469983,-0.434314 1.469983,-0.434314 1.469983,-0.434314"
       id="path827"
       inkscape:connector-curvature="0" />
    <path
       style="fill:#ffffff;stroke:#000000;stroke-width:1.05833333;stroke-linecap:butt;stroke-linejoin:miter;stroke-opacity:1;stroke-miterlimit:4;stroke-dasharray:none"
       d="m 27.263403,28.999608 c 0,0 -1.907893,-1.252418 -0.61986,-2.313348 1.288034,-1.060929 2.691199,-1.829329 3.158921,-0.994112 0.467721,0.835217 2.706103,2.138156 1.637025,3.207234 -1.069078,1.069078 -2.739512,2.372017 -3.340869,1.603617 -0.601356,-0.768399 -0.835217,-1.503391 -0.835217,-1.503391 z"
       id="path2087"
       inkscape:connector-curvature="0" />
    <path
       style="fill:#ffffff;stroke:#000000;stroke-width:1.05833333;stroke-linecap:butt;stroke-linejoin:miter;stroke-opacity:1;stroke-miterlimit:4;stroke-dasharray:none"
       d="m 31.639941,32.106617 c 0,0 -0.400904,-1.269531 0.133635,-1.069079 0.534539,0.200453 1.26953,0.334087 1.135896,0.7684 -0.133635,0.434313 -0.233861,0.835218 -0.567948,0.835218 -0.334087,0 -0.701583,-0.534539 -0.701583,-0.534539 z"
       id="path2089"
       inkscape:connector-curvature="0" />
  </g>
</svg>
